<svg width="530" height="252" viewBox="0 0 530 252" fill="none" xmlns="http://www.w3.org/2000/svg">
<path d="M432.737 203.6L378.5 168.812L324.263 203.6L340.625 141.285L290.781 100.75L355.169 96.8175L378.5 37.225L401.831 96.8175L466.219 100.75L416.375 141.285M499.7 131C499.7 122.977 502.892 115.283 508.575 109.61C514.257 103.937 521.964 100.75 530 100.75V40.25C530 32.2272 526.808 24.533 521.125 18.86C515.443 13.187 507.736 10 499.7 10H257.3C249.264 10 241.557 13.187 235.875 18.86C230.192 24.533 227 32.2272 227 40.25V100.75C235.036 100.75 242.743 103.937 248.425 109.61C254.108 115.283 257.3 122.977 257.3 131C257.3 139.023 254.108 146.717 248.425 152.39C242.743 158.063 235.036 161.25 227 161.25V221.75C227 229.773 230.192 237.467 235.875 243.14C241.557 248.813 249.264 252 257.3 252H499.7C507.736 252 515.443 248.813 521.125 243.14C526.808 237.467 530 229.773 530 221.75V161.25C521.964 161.25 514.257 158.063 508.575 152.39C502.892 146.717 499.7 139.023 499.7 131Z" fill="#F61C1C"/>
<path d="M207.6 11.1C209.1 26.7 206.7 52.8 204.6 64.8C187.8 67.2 171 68.1 153.9 69.3C149.1 94.5 144.3 194.4 144.9 238.2C120.9 242.4 96.3 247.8 72.3 245.7C66.6 177.6 68.1 138 68.4 76.8C50.1 75 25.5 78 8.4 79.8C7.5 60.9 9 38.1 13.8 18.3C30.6 9.89999 187.5 6.9 207.6 11.1Z" fill="#F8FF2A"/>
</svg>
